# xmcd
#
# Track frame offsets: 
#        150
#        9538
#        17220
#        51164
#        58831
#        71572
#        85317
#        98411
#        109769
#        122701
#        136058
#        145324
#        157009
#        164103
#        176042
#        188727
#        201544
#        214434
#        224688
#        234196
#
# Disc length: 3271 seconds
#
# Revision: 0
# Processed by: cddbd v1.5.2PL0 Copyright (c) Steve Scherf et al.
# Submitted via: ExactAudioCopy v1.0b6
#
DISCID=310cc514
DTITLE=Various Artist - Forever Nashville CD1
DYEAR=2015
DGENRE=Country
TTITLE0=Dolly Parton - Girl Left Alone
TTITLE1=Jerry Lee Lewis - Waiting For A Train
TTITLE2=Tony Joe White - I Want You, Baby [Live]
TTITLE3=Johnny Cash - If The Good Lord's Willing
TTITLE4=Jim Reeves - Four Walls
TTITLE5=Hank Williams - Ramblin' Man
TTITLE6=Lefty Frizzell - Travelin' Blues
TTITLE7=Kitty Wells - It Wasn't God Who Made Honky Tonk Angels
TTITLE8=Blue Ridge Playboys feat. Moon Mullican - Gimme My Dime Back, 
TTITLE8=Give Me My Money
TTITLE9=Alabama - Patches [Live]
TTITLE10=Buck Owens - Country Girl (Leavin' Dirty Tracks)
TTITLE11=Ernest Tubb - Walking The Floor Over You
TTITLE12=Conway Twitty - Treat Me Mean, Treat Me Cruel
TTITLE13=Porter Wagoner - Crumbs From Another Man's Table
TTITLE14=Freddy Fender - Since I Met You Baby
TTITLE15=Gene Autry - Little Old Band Of Gold
TTITLE16=George Jones - Colour Of The Blues
TTITLE17=Patsy Cline - Pick Me Up On Your Way Down
TTITLE18=Charlie Rich - Lonely Weekends
TTITLE19=Waylon Jennings - Sally Was A Good Old Girl
EXTD=
EXTT0=
EXTT1=
EXTT2=
EXTT3=
EXTT4=
EXTT5=
EXTT6=
EXTT7=
EXTT8=
EXTT9=
EXTT10=
EXTT11=
EXTT12=
EXTT13=
EXTT14=
EXTT15=
EXTT16=
EXTT17=
EXTT18=
EXTT19=
PLAYORDER=
